<svg version="1.1" xmlns="http://www.w3.org/2000/svg" style="display: block;" viewBox="0 0 2048 2048" width="1024" height="1024" preserveAspectRatio="none" xmlns:c2pa="http://c2pa.org/manifest"><metadata><c2pa:manifest>AAAMZ2p1bWIAAAAeanVtZGMycGEAEQAQgAAAqgA4m3EDYzJwYQAAAAxBanVtYgAAAEdqdW1kYzJtYQARABCAAACqADibcQN1cm46YzJwYTplYzFmMDRiMy0wZDdmLTRjYmMtYWE3Ny1lMzY1M2ZiMGY2ZjkAAAAB4mp1bWIAAAApanVtZGMyYXMAEQAQgAAAqgA4m3EDYzJwYS5hc3NlcnRpb25zAAAAAO1qdW1iAAAAQWp1bWRjYm9yABEAEIAAAKoAOJtxE2MycGEuYWN0aW9ucy52MgAAAAAYYzJzaLkJ0WdOnTnuHfFYr6WPT8gAAACkY2JvcqFnYWN0aW9uc4GjZmFjdGlvbmxjMnBhLmNyZWF0ZWRxZGlnaXRhbFNvdXJjZVR5cGV4Rmh0dHA6Ly9jdi5pcHRjLm9yZy9uZXdzY29kZXMvZGlnaXRhbHNvdXJjZXR5cGUvdHJhaW5lZEFsZ29yaXRobWljTWVkaWFrZGVzY3JpcHRpb252Q3JlYXRlZCBieSBSZWNyYWZ0IEFJLgAAAMRqdW1iAAAAQGp1bWRjYm9yABEAEIAAAKoAOJtxE2MycGEuaGFzaC5kYXRhAAAAABhjMnNoHHS5b/gTRQSuxyd4gTZPBAAAAHxjYm9ypWpleGNsdXNpb25zgaJlc3RhcnQY22ZsZW5ndGgZEIxkbmFtZW5qdW1iZiBtYW5pZmVzdGNhbGdmc2hhMjU2ZGhhc2hYIPZ+qXizJvKZfdljHwmh5kDnXAynsPXn8CjHnRKb5TESY3BhZEkAAAAAAAAAAAAAAAI0anVtYgAAACdqdW1kYzJjbAARABCAAACqADibcQNjMnBhLmNsYWltLnYyAAAAAgVjYm9ypmppbnN0YW5jZUlEeCx4bXA6aWlkOjNjMDE0Y2U0LTczMDItNDVkOS1hMWI4LTAwOGM0ODgyYzQzZXRjbGFpbV9nZW5lcmF0b3JfaW5mb6NkbmFtZWpyZWNyYWZ0LmFpZ3ZlcnNpb254KDgxY2U4MmUyYzVjM2NiZmJlOGM2ZmJlMTc5ZDVmOGQ5MWM0MDljZTF3b3JnLmNvbnRlbnRhdXRoLmMycGFfcnNmMC45MC43aXNpZ25hdHVyZXhNc2VsZiNqdW1iZj0vYzJwYS91cm46YzJwYTplYzFmMDRiMy0wZDdmLTRjYmMtYWE3Ny1lMzY1M2ZiMGY2ZjkvYzJwYS5zaWduYXR1cmVyY3JlYXRlZF9hc3NlcnRpb25zgqJjdXJseCpzZWxmI2p1bWJmPWMycGEuYXNzZXJ0aW9ucy9jMnBhLmFjdGlvbnMudjJkaGFzaFggNLX+ARE4voHMshYF48EoZ8tVXi+NwBWvLY2LdNrnEm2iY3VybHgpc2VsZiNqdW1iZj1jMnBhLmFzc2VydGlvbnMvYzJwYS5oYXNoLmRhdGFkaGFzaFggU/O4I6//hGhafUBoW44UXo5GDOtx/uEFY6RKNtupG+JoZGM6dGl0bGV4GlJlY3JhZnQgQUkgR2VuZXJhdGVkIEltYWdlY2FsZ2ZzaGEyNTYAAAfcanVtYgAAAChqdW1kYzJjcwARABCAAACqADibcQNjMnBhLnNpZ25hdHVyZQAAAAesY2JvctKEWQOwogEmGCGCWQHnMIIB4zCCAYmgAwIBAgIJALfeWmNDUW56MAoGCCqGSM49BAMCMEAxHzAdBgNVBAMMFlJlY3JhZnQgU3RhZ2luZyBEZXYgQ0ExEDAOBgNVBAoMB1JlY3JhZnQxCzAJBgNVBAYTAlVTMB4XDTI2MDYxMjE5NDM1MFoXDTI3MDYxMjE5NDM1MFowNzELMAkGA1UEBhMCVVMxEzARBgNVBAoTClJlY3JhZnQgQUkxEzARBgNVBAMTCnJlY3JhZnQuYWkwWTATBgcqhkjOPQIBBggqhkjOPQMBBwNCAARKaTVbACsg/DeG3LeOxYdID/VA6EFG73E6Oknb+KIiCFJygRUz4ueN2z/t2qYb6CIUvS8RvgOiiClfoqsYtw81o3UwczAMBgNVHRMBAf8EAjAAMA4GA1UdDwEB/wQEAwIGwDATBgNVHSUEDDAKBggrBgEFBQcDBDAdBgNVHQ4EFgQULzHpBen96SL1y4IPHa8MkMshXf0wHwYDVR0jBBgwFoAUAgsqOBrKqpdK//m/kxZo7ZR4ebcwCgYIKoZIzj0EAwIDSAAwRQIgU8hKW0aXvvk8SQgVFNkax69Ym9ae8GsT2RZTQw+B51ACIQC0D4BkEoRD4N0r2ZRkNy0HZaW3WICy/QZGN95ilF4yzFkBvTCCAbkwggFfoAMCAQICCQCc+Wg7T6ATbzAKBggqhkjOPQQDAjBAMR8wHQYDVQQDDBZSZWNyYWZ0IFN0YWdpbmcgRGV2IENBMRAwDgYDVQQKDAdSZWNyYWZ0MQswCQYDVQQGEwJVUzAeFw0yNjA2MTIxOTQwMTZaFw0yODA2MTExOTQwMTZaMEAxHzAdBgNVBAMMFlJlY3JhZnQgU3RhZ2luZyBEZXYgQ0ExEDAOBgNVBAoMB1JlY3JhZnQxCzAJBgNVBAYTAlVTMFkwEwYHKoZIzj0CAQYIKoZIzj0DAQcDQgAEQ9IQBlcVbKaKPYrQSfOhL/00s7xUDC7RinIuLO/I1k99y9yh6oWF9kPxaP+tx1v1PeOL3yrVquJ730H0ZGiDyqNCMEAwDwYDVR0TAQH/BAUwAwEB/zAOBgNVHQ8BAf8EBAMCAYYwHQYDVR0OBBYEFAILKjgayqqXSv/5v5MWaO2UeHm3MAoGCCqGSM49BAMCA0gAMEUCIFQwNImLlYDeQhjgF+ZiqTbgcuzSqmOJw3Q2lQ/hu83FAiEA9O8cLm/xfoVLqB4jtdbuHzi3WL+p2RN+DRGkwpYswVuhY3BhZFkDpAAAAAAAAAAAAAAAAAAAAAAAAAAAAAAAAAAAAAAAAAAAAAAAAAAAAAAAAAAAAAAAAAAAAAAAAAAAAAAAAAAAAAAAAAAAAAAAAAAAAAAAAAAAAAAAAAAAAAAAAAAAAAAAAAAAAAAAAAAAAAAAAAAAAAAAAAAAAAAAAAAAAAAAAAAAAAAAAAAAAAAAAAAAAAAAAAAAAAAAAAAAAAAAAAAAAAAAAAAAAAAAAAAAAAAAAAAAAAAAAAAAAAAAAAAAAAAAAAAAAAAAAAAAAAAAAAAAAAAAAAAAAAAAAAAAAAAAAAAAAAAAAAAAAAAAAAAAAAAAAAAAAAAAAAAAAAAAAAAAAAAAAAAAAAAAAAAAAAAAAAAAAAAAAAAAAAAAAAAAAAAAAAAAAAAAAAAAAAAAAAAAAAAAAAAAAAAAAAAAAAAAAAAAAAAAAAAAAAAAAAAAAAAAAAAAAAAAAAAAAAAAAAAAAAAAAAAAAAAAAAAAAAAAAAAAAAAAAAAAAAAAAAAAAAAAAAAAAAAAAAAAAAAAAAAAAAAAAAAAAAAAAAAAAAAAAAAAAAAAAAAAAAAAAAAAAAAAAAAAAAAAAAAAAAAAAAAAAAAAAAAAAAAAAAAAAAAAAAAAAAAAAAAAAAAAAAAAAAAAAAAAAAAAAAAAAAAAAAAAAAAAAAAAAAAAAAAAAAAAAAAAAAAAAAAAAAAAAAAAAAAAAAAAAAAAAAAAAAAAAAAAAAAAAAAAAAAAAAAAAAAAAAAAAAAAAAAAAAAAAAAAAAAAAAAAAAAAAAAAAAAAAAAAAAAAAAAAAAAAAAAAAAAAAAAAAAAAAAAAAAAAAAAAAAAAAAAAAAAAAAAAAAAAAAAAAAAAAAAAAAAAAAAAAAAAAAAAAAAAAAAAAAAAAAAAAAAAAAAAAAAAAAAAAAAAAAAAAAAAAAAAAAAAAAAAAAAAAAAAAAAAAAAAAAAAAAAAAAAAAAAAAAAAAAAAAAAAAAAAAAAAAAAAAAAAAAAAAAAAAAAAAAAAAAAAAAAAAAAAAAAAAAAAAAAAAAAAAAAAAAAAAAAAAAAAAAAAAAAAAAAAAAAAAAAAAAAAAAAAAAAAAAAAAAAAAAAAAAAAAAAAAAAAAAAAAAAAAAAAAAAAAAAAAAAAAAAAAAAAAAAAAAAAAAAAAAAAAAAAAAAAAAAAAAAAAAAAAAAAAAAAAAAAAAAAAAAAAAAAAAAAAAAAAAAAAAAAAAAAAAAAAAAAAAAAAAAAAAAAAAAA9lhA28X8Fd//a9q6j7i8ZOZea2Ix1TuD0xYRA6e83Jz/4PbkgBHuenn5C4HUk/pN9oTFzs9BSQfsTIMLdctyRtVMtA==</c2pa:manifest></metadata>
<defs>
	<linearGradient id="Gradient1" gradientUnits="userSpaceOnUse" x1="576.878" y1="652.703" x2="568.827" y2="638.536">
		<stop class="stop0" offset="0" stop-opacity="1" stop-color="rgb(0,0,0)"/>
		<stop class="stop1" offset="1" stop-opacity="1" stop-color="rgb(10,11,65)"/>
	</linearGradient>
	<linearGradient id="Gradient2" gradientUnits="userSpaceOnUse" x1="523.29" y1="665.059" x2="609.001" y2="569.718">
		<stop class="stop0" offset="0" stop-opacity="1" stop-color="rgb(4,1,6)"/>
		<stop class="stop1" offset="1" stop-opacity="1" stop-color="rgb(12,17,78)"/>
	</linearGradient>
	<linearGradient id="Gradient3" gradientUnits="userSpaceOnUse" x1="966.841" y1="1532.52" x2="967.187" y2="1595.51">
		<stop class="stop0" offset="0" stop-opacity="1" stop-color="rgb(1,0,0)"/>
		<stop class="stop1" offset="1" stop-opacity="1" stop-color="rgb(19,27,63)"/>
	</linearGradient>
	<linearGradient id="Gradient4" gradientUnits="userSpaceOnUse" x1="1723.94" y1="1866.06" x2="1724.07" y2="1804.93">
		<stop class="stop0" offset="0" stop-opacity="1" stop-color="rgb(16,19,42)"/>
		<stop class="stop1" offset="1" stop-opacity="1" stop-color="rgb(9,16,75)"/>
	</linearGradient>
</defs>
<path transform="translate(0,0)" fill="rgb(250,247,240)" d="M 0 0 L 2048 0 L 2048 1589.27 L 2048 1594.97 L 2048 2048 L 0 2048 L 0 1594.89 L 0 1589.37 L 0 0 z"/>
<path transform="translate(0,0)" fill="rgb(59,158,196)" d="M 0 1594.89 L 827.139 1594.91 C 826.947 1605.21 826.557 1615.51 825.968 1625.8 C 743.294 1629.54 485.337 1651.7 429.52 1713.76 C 426.498 1717.12 424.14 1720.81 422.229 1724.89 C 410.077 1782.23 565.315 1808.68 604.838 1815.41 C 673.699 1826.47 743.069 1834.09 812.688 1838.24 C 930.782 1844.7 1049.16 1843.97 1167.17 1836.06 C 1249.42 1830.4 1335.06 1820.53 1415 1799.52 C 1440.22 1792.88 1498.66 1773.47 1512.47 1751.89 C 1536.31 1724.46 1498.84 1699.53 1476.78 1689.35 C 1465.51 1682.08 1433.22 1671.99 1419.42 1668.34 C 1321.71 1642.55 1220.19 1634.37 1119.73 1626.84 C 1111.45 1626.22 1102.28 1622.93 1101.04 1613.86 C 1101.76 1610.02 1101.7 1599.6 1101.77 1595.12 C 1214.83 1593.64 1331.69 1594.92 1445 1594.98 L 2048 1594.97 L 2048 2048 L 0 2048 L 0 1594.89 z"/>
<path transform="translate(0,0)" fill="rgb(30,58,95)" d="M 1624.28 1716.31 C 1619.27 1714.3 1613.56 1711.27 1610.38 1706.72 C 1608.34 1703.8 1607.72 1700.75 1608.33 1697.28 C 1609.17 1692.48 1614.98 1687.84 1619.05 1685.94 C 1676.11 1659.17 1812.72 1658.57 1869.7 1675.46 C 1885.22 1679.22 1933.9 1693.53 1900.9 1713.52 C 1891.1 1719.81 1871.16 1724.97 1859.53 1727.05 C 1794.48 1738.68 1721.52 1739.63 1656.73 1726.31 C 1648.99 1724.72 1630.89 1720.08 1624.28 1716.31 z"/>
<path transform="translate(0,0)" fill="rgb(245,166,35)" d="M 1616.53 1705.39 C 1614.59 1702.54 1614.27 1702.55 1614.25 1699.03 C 1618.14 1688.65 1642.81 1682.48 1652.98 1680.31 C 1721.66 1665.63 1797.29 1666.57 1866.12 1679.45 C 1880.72 1683.73 1898.21 1686.87 1907.14 1699.39 C 1887.5 1734.12 1730.33 1732.7 1692.17 1726.5 C 1673.01 1723.38 1639.33 1718.91 1622.96 1709.43 C 1620.78 1708.14 1618.64 1706.8 1616.53 1705.39 z"/>
<path transform="translate(0,0)" fill="rgb(245,166,35)" d="M 1860.76 1835.73 C 1859.05 1842.68 1854.93 1846.63 1848.55 1849.91 C 1837.7 1855.49 1824.1 1859 1812.14 1861.17 C 1747.9 1872.82 1678.26 1872.5 1614.96 1855.75 C 1606.63 1853.09 1594.07 1848.48 1590.14 1840.32 C 1585.22 1830.1 1600.44 1821.74 1608.21 1819.11 C 1661.2 1801.18 1785.2 1794.82 1835.34 1816.61 C 1847.06 1819.69 1856.8 1823.7 1860.76 1835.73 z"/>
<path transform="translate(0,0)" fill="url(#Gradient4)" d="M 1860.76 1835.73 C 1859.05 1842.68 1854.93 1846.63 1848.55 1849.91 C 1837.7 1855.49 1824.1 1859 1812.14 1861.17 C 1747.9 1872.82 1678.26 1872.5 1614.96 1855.75 C 1606.63 1853.09 1594.07 1848.48 1590.14 1840.32 C 1585.22 1830.1 1600.44 1821.74 1608.21 1819.11 C 1661.2 1801.18 1785.2 1794.82 1835.34 1816.61 C 1835.09 1817.19 1835.04 1817.49 1835.03 1817.88 L 1835.25 1817.97 C 1834.21 1820.02 1832.13 1817.03 1828.31 1819.63 C 1767.15 1806.23 1703.98 1804.89 1642.31 1815.67 C 1630.99 1817.72 1603.1 1823.28 1596.24 1832.98 C 1595.76 1835.62 1595.5 1837 1597.05 1839.35 C 1605.42 1852.01 1653.87 1858.38 1669.8 1860.28 C 1710.2 1865.08 1819.49 1866.35 1851.23 1841.24 C 1853.17 1839.7 1854.97 1837.74 1856.36 1835.69 C 1856.38 1835.96 1856.3 1836.8 1856.6 1837.14 C 1856.69 1837.23 1856.82 1837.29 1856.94 1837.29 C 1857.68 1837.31 1858.25 1836.81 1858.85 1836.47 C 1859.54 1836.09 1859.92 1836.02 1860.76 1835.73 z"/>
<path transform="translate(0,0)" fill="rgb(11,8,35)" d="M 1835.34 1816.61 C 1847.06 1819.69 1856.8 1823.7 1860.76 1835.73 C 1859.92 1836.02 1859.54 1836.09 1858.85 1836.47 C 1858.25 1836.81 1857.68 1837.31 1856.94 1837.29 C 1856.82 1837.29 1856.69 1837.23 1856.6 1837.14 C 1856.3 1836.8 1856.38 1835.96 1856.36 1835.69 C 1849.16 1824.41 1840.03 1824.1 1828.31 1819.63 C 1832.13 1817.03 1834.21 1820.02 1835.25 1817.97 L 1835.03 1817.88 C 1835.04 1817.49 1835.09 1817.19 1835.34 1816.61 z"/>
<path transform="translate(0,0)" fill="rgb(30,58,95)" d="M 1409.21 1864.33 C 1412.08 1863.89 1411.04 1863.95 1414 1864.52 L 1414.19 1866.36 C 1408.44 1871.72 1378.78 1875.46 1369.31 1877.05 C 1256.45 1895.82 1142.15 1904.59 1027.75 1903.26 C 1024.73 1903.42 1024.75 1903.67 1022.15 1902.29 L 1022.03 1900.51 C 1026.59 1896.49 1042.03 1898.11 1048.55 1898.11 C 1061.75 1898.13 1074.94 1897.92 1088.13 1897.48 C 1201.72 1894.18 1297.56 1885.37 1409.21 1864.33 z"/>
<path transform="translate(0,0)" fill="rgb(30,58,95)" d="M 674.588 1872.4 C 708.1 1867.02 740.235 1883.42 770.37 1892.46 C 785.094 1897.03 800.346 1899.68 815.748 1900.34 C 834.841 1901.19 851.878 1898.68 870.318 1893.72 C 877.525 1891.79 896.792 1877.72 900.693 1881.86 C 897.846 1892.22 864.046 1901.19 854.809 1903.48 C 793.195 1913.32 764.154 1892.64 707.858 1879.25 C 689.974 1874.99 663.907 1878.44 646.701 1883.68 C 641.854 1885.16 626.223 1892.43 622.832 1890.93 C 622.089 1888.04 621.96 1889.44 623.507 1886.63 C 636.482 1878.71 659.565 1873.97 674.588 1872.4 z"/>
<path transform="translate(0,0)" fill="rgb(30,58,95)" d="M 366.116 1717.64 C 367.044 1717.99 368.019 1718.88 368.885 1719.54 C 369.675 1725.79 306.351 1759.76 355.17 1792.17 C 389.131 1814.72 424.517 1821.34 463.129 1832.77 C 474.644 1836.18 494.845 1838.38 505.014 1843.05 C 506.697 1845.81 506.346 1844.31 505.722 1847.78 C 504.082 1847.56 502.447 1847.29 500.818 1847 C 448.671 1837.28 251.956 1795.14 366.116 1717.64 z"/>
<path transform="translate(0,0)" fill="rgb(30,58,95)" d="M 1909.9 1862.88 C 1910.29 1863.26 1911.67 1865.09 1912.05 1865.58 C 1910.21 1874.11 1881.26 1885.85 1873.39 1888.97 C 1823.66 1908.68 1774.2 1908.88 1721.84 1905.49 C 1721.41 1905.24 1720.2 1903.96 1719.79 1903.55 C 1720.15 1901.9 1720.45 1900.36 1723 1900.51 C 1784.06 1904.04 1859.23 1901.49 1909.9 1862.88 z"/>
<path transform="translate(0,0)" fill="rgb(30,58,95)" d="M 1964.86 1714.62 C 1967.02 1715.71 1967.15 1716.32 1967.53 1718.37 C 1942.14 1757.95 1842.06 1766.03 1797.9 1766.99 C 1795.9 1766.49 1796.82 1767.03 1795.38 1765.02 C 1797.23 1759.53 1800.87 1761.36 1806.28 1761.04 C 1861.3 1757.86 1923.04 1755.09 1964.86 1714.62 z"/>
<path transform="translate(0,0)" fill="rgb(30,58,95)" d="M 315.317 1703.85 C 317.551 1704.85 317.478 1704.69 318.811 1706.71 L 318.492 1708.15 C 315.279 1711.22 307.43 1713.92 303.541 1715.84 C 254.487 1740 248.415 1781.02 297.095 1810.48 C 300.626 1812.62 307.218 1816.6 308.669 1820.7 C 307.137 1821.14 305.067 1821.52 303.556 1820.82 C 278.257 1809 248.049 1778.77 260.792 1748.45 C 270.848 1724.52 293.093 1713.55 315.317 1703.85 z"/>
<path transform="translate(0,0)" fill="rgb(30,58,95)" d="M 1533.66 1867.94 C 1573.55 1884.04 1609.28 1893.9 1652.54 1896.52 C 1658.16 1896.86 1665.64 1895.36 1669.8 1898.98 L 1669.94 1902.76 C 1657.16 1902.27 1641.34 1901.77 1624.1 1899.21 C 1600.65 1895.73 1553.2 1886.34 1533.29 1872.5 C 1532.4 1871.88 1533.32 1869.48 1533.66 1867.94 z"/>
<path transform="translate(0,0)" fill="rgb(30,58,95)" d="M 1565.9 1763.6 C 1567.55 1764.55 1567.29 1764.65 1568.58 1766.26 C 1568.6 1771.16 1559.47 1781.62 1555.89 1785.3 C 1529.17 1812.87 1494.01 1829.78 1458.23 1842.36 L 1456.16 1841.64 L 1455.18 1839.57 C 1457.58 1835.65 1480.33 1828.23 1486.38 1825.4 C 1518.26 1810.52 1545.27 1792.83 1565.9 1763.6 z"/>
<path transform="translate(0,0)" fill="rgb(255,255,255)" d="M 1079.09 624.91 L 1101.4 624.485 C 1103.2 637.271 1105.9 649.488 1112.42 660.841 C 1093.99 666.111 1092.52 681.242 1077.91 691.205 C 1066 699.329 1044.14 698.017 1037.44 712.613 C 1022.09 746.044 1087.5 768.974 1106.6 776.26 C 1071 822.538 1080.12 862.157 1099.03 914.19 C 1111.76 948.225 1127.88 980.892 1147.16 1011.7 C 1158.64 1030.24 1172.46 1047.65 1183.82 1066.05 C 1221.7 1127.46 1245.3 1193.79 1233.81 1266.8 C 1226.13 1313.96 1206.91 1358.5 1177.85 1396.43 C 1161.26 1418.37 1147.86 1431.08 1127.62 1448.77 L 1129.05 1448.66 C 1134.01 1447.84 1132.35 1450.55 1131.32 1453.96 L 1131.08 1455.28 C 1130.94 1456.15 1130.75 1456.87 1130.38 1457.67 C 1126.67 1460 1125.13 1463.23 1123.51 1462.15 C 1123.02 1461.92 1121.79 1461.14 1121.21 1461.53 C 1100.69 1475.72 1080.07 1489.99 1056.68 1499.12 C 1052.52 1500.75 1051.86 1500.14 1049.95 1503.67 C 1047.93 1504.2 1047.62 1503.77 1045.53 1504.64 C 1043.82 1505.23 1043.24 1505.51 1041.48 1505.73 C 1041.51 1502.32 1045.03 1504.25 1047.25 1502.2 C 1047.81 1501.79 1046.79 1500.54 1046.58 1500.56 C 1042.13 1501.19 1042.47 1502.29 1037.74 1501.4 C 986.843 1517.15 944.03 1525.81 889.551 1516.89 C 889.315 1513.09 891.035 1508.23 892.09 1504.43 C 897.68 1504.4 904.425 1504.62 909.357 1501.88 C 906.125 1498.53 880.474 1497.35 874.299 1496.74 C 866.131 1493.45 845.287 1491.31 834.948 1488.49 C 756.014 1466.92 682.169 1416.51 644.392 1342.44 C 639.054 1331.97 628.954 1312.5 636.364 1301.62 C 641.673 1302.42 649.269 1311.05 655.763 1312.22 L 656.554 1311.07 C 655.339 1307.01 644.466 1298.96 641.127 1293.65 C 633.211 1281.28 610.952 1249.93 622.789 1235.78 C 643.386 1211.15 675.005 1249.59 699.929 1257.67 C 746.416 1272.74 780.133 1250.3 807.139 1214.78 C 833.831 1216.96 854.489 1218.85 881.617 1216.28 L 882.2 1214.14 C 869.329 1209.85 843.161 1212.29 827.728 1210.79 C 777.092 1205.89 645.084 1182.51 628.414 1128.12 C 633.322 1129.96 645.894 1136.02 649.857 1133.47 C 649.382 1131.58 649.477 1130.72 647.289 1129.72 C 607.018 1111.35 554.539 1091.76 543.318 1044.08 C 549.489 1047.85 566.95 1059.03 573.331 1058.6 L 573.86 1057.34 C 572.132 1053.01 553.761 1044.04 548.799 1040.77 C 530.567 1028.84 510.493 1014.66 497.708 996.7 C 492.714 989.685 482.424 962.475 493.868 959.149 C 503.055 963.319 530.692 991.522 540.631 988.908 C 541.09 983.482 522.518 973.603 517.502 969.513 C 501.563 956.515 481.602 943.112 469.41 926.437 C 456.603 908.923 446.276 886.922 468.449 871.961 C 477.057 881.005 519.831 927.476 530.103 924.661 C 527.955 919.431 506.758 902.057 500.843 896.729 C 477.675 875.855 410.052 803.214 462.451 779.309 C 470.136 794.913 479.291 809.751 489.791 823.619 C 494.832 830.273 516.562 855.972 524.487 857.061 L 525.479 855.779 C 524.772 850.359 514.274 842.724 510.155 838.387 C 501.124 828.756 492.841 818.45 485.376 807.56 C 469.654 784.348 442.372 732.824 461.475 703.977 C 467.895 694.281 485.613 688.564 494.172 699.346 C 500.036 706.734 503.041 714.386 508.042 722.336 C 516.778 736.205 525.698 749.957 534.8 763.588 C 623.852 895.666 755.07 1003.46 918.333 1022.45 C 922.836 1022.97 930.983 993.473 932.072 989.134 C 942.58 947.28 936.591 904.062 927.834 862.51 C 921.874 833.855 916.078 806.053 907.06 778.161 C 901.731 761.679 898.349 743.743 895.694 726.628 C 894.652 719.917 893.775 710.832 893.752 703.837 C 897.147 686.294 897.52 665.581 909.016 650.858 C 920.729 636.123 936.993 635.434 953.405 633.737 C 952.288 645.494 960.17 661.927 967.734 670.961 C 978.574 683.967 994.195 692.061 1011.07 693.418 C 1052.34 696.381 1079.52 664.673 1079.09 624.91 z"/>
<path transform="translate(0,0)" fill="rgb(11,8,35)" d="M 1127.62 1448.77 L 1129.05 1448.66 C 1134.01 1447.84 1132.35 1450.55 1131.32 1453.96 L 1131.08 1455.28 C 1130.94 1456.15 1130.75 1456.87 1130.38 1457.67 C 1126.67 1460 1125.13 1463.23 1123.51 1462.15 C 1123.02 1461.92 1121.79 1461.14 1121.21 1461.53 C 1100.69 1475.72 1080.07 1489.99 1056.68 1499.12 C 1052.52 1500.75 1051.86 1500.14 1049.95 1503.67 C 1047.93 1504.2 1047.62 1503.77 1045.53 1504.64 C 1043.82 1505.23 1043.24 1505.51 1041.48 1505.73 C 1041.51 1502.32 1045.03 1504.25 1047.25 1502.2 C 1047.81 1501.79 1046.79 1500.54 1046.58 1500.56 C 1042.13 1501.19 1042.47 1502.29 1037.74 1501.4 C 1072.64 1487.34 1098.43 1472.85 1127.62 1448.77 z"/>
<path transform="translate(0,0)" fill="rgb(30,58,95)" d="M 916.611 1017.55 C 939.66 961.873 933.313 915.101 920.996 858.213 C 917.939 844.096 913.801 821.182 909.827 808.028 C 892.475 753.291 882.472 704.583 889.697 646.872 C 905.649 519.473 1053.88 458.919 1136.74 571.014 C 1153.11 565.731 1167.96 565.537 1183.54 573.55 C 1198.65 581.308 1210.01 594.803 1215.07 611.01 C 1220.1 627.029 1218.44 644.399 1210.47 659.176 C 1201.7 675.188 1190.96 681.88 1174.88 689.213 L 1173.06 688.262 L 1168.18 690.308 C 1166.06 688.644 1156.75 678.249 1154.67 675.628 L 1157.2 672.21 L 1157.28 671.198 C 1150.96 664.388 1141.65 657.268 1132.06 656.89 C 1123.38 656.876 1121.31 660.222 1112.42 660.841 C 1105.9 649.488 1103.2 637.271 1101.4 624.485 L 1079.09 624.91 C 1079.52 664.673 1052.34 696.381 1011.07 693.418 C 994.195 692.061 978.574 683.967 967.734 670.961 C 960.17 661.927 952.288 645.494 953.405 633.737 C 936.993 635.434 920.729 636.123 909.016 650.858 C 897.52 665.581 897.147 686.294 893.752 703.837 C 893.775 710.832 894.652 719.917 895.694 726.628 C 898.349 743.743 901.731 761.679 907.06 778.161 C 916.078 806.053 921.874 833.855 927.834 862.51 C 936.591 904.062 942.58 947.28 932.072 989.134 C 930.983 993.473 922.836 1022.97 918.333 1022.45 C 755.07 1003.46 623.852 895.666 534.8 763.588 C 525.698 749.957 516.778 736.205 508.042 722.336 C 503.041 714.386 500.036 706.734 494.172 699.346 C 485.613 688.564 467.895 694.281 461.475 703.977 C 442.372 732.824 469.654 784.348 485.376 807.56 C 492.841 818.45 501.124 828.756 510.155 838.387 C 514.274 842.724 524.772 850.359 525.479 855.779 L 524.487 857.061 C 516.562 855.972 494.832 830.273 489.791 823.619 C 479.291 809.751 470.136 794.913 462.451 779.309 C 410.052 803.214 477.675 875.855 500.843 896.729 C 506.758 902.057 527.955 919.431 530.103 924.661 C 519.831 927.476 477.057 881.005 468.449 871.961 C 446.276 886.922 456.603 908.923 469.41 926.437 C 481.602 943.112 501.563 956.515 517.502 969.513 C 522.518 973.603 541.09 983.482 540.631 988.908 C 530.692 991.522 503.055 963.319 493.868 959.149 C 482.424 962.475 492.714 989.685 497.708 996.7 C 510.493 1014.66 530.567 1028.84 548.799 1040.77 C 553.761 1044.04 572.132 1053.01 573.86 1057.34 L 573.331 1058.6 C 566.95 1059.03 549.489 1047.85 543.318 1044.08 C 554.539 1091.76 607.018 1111.35 647.289 1129.72 C 649.477 1130.72 649.382 1131.58 649.857 1133.47 C 645.894 1136.02 633.322 1129.96 628.414 1128.12 C 645.084 1182.51 777.092 1205.89 827.728 1210.79 C 843.161 1212.29 869.329 1209.85 882.2 1214.14 L 881.617 1216.28 C 854.489 1218.85 833.831 1216.96 807.139 1214.78 C 780.133 1250.3 746.416 1272.74 699.929 1257.67 C 675.005 1249.59 643.386 1211.15 622.789 1235.78 C 610.952 1249.93 633.211 1281.28 641.127 1293.65 C 644.466 1298.96 655.339 1307.01 656.554 1311.07 L 655.763 1312.22 C 649.269 1311.05 641.673 1302.42 636.364 1301.62 C 628.954 1312.5 639.054 1331.97 644.392 1342.44 C 682.169 1416.51 756.014 1466.92 834.948 1488.49 C 845.287 1491.31 866.131 1493.45 874.299 1496.74 C 880.474 1497.35 906.125 1498.53 909.357 1501.88 C 904.425 1504.62 897.68 1504.4 892.09 1504.43 C 891.035 1508.23 889.315 1513.09 889.551 1516.89 C 944.03 1525.81 986.843 1517.15 1037.74 1501.4 C 1042.47 1502.29 1042.13 1501.19 1046.58 1500.56 C 1046.79 1500.54 1047.81 1501.79 1047.25 1502.2 C 1045.03 1504.25 1041.51 1502.32 1041.48 1505.73 C 1043.24 1505.51 1043.82 1505.23 1045.53 1504.64 C 1047.62 1503.77 1047.93 1504.2 1049.95 1503.67 C 1051.86 1500.14 1052.52 1500.75 1056.68 1499.12 C 1080.07 1489.99 1100.69 1475.72 1121.21 1461.53 C 1121.79 1461.14 1123.02 1461.92 1123.51 1462.15 C 1125.13 1463.23 1126.67 1460 1130.38 1457.67 C 1124.13 1478.99 1118.12 1512.8 1104.42 1528.36 C 1103.58 1547.05 1103.47 1570.88 1101.87 1588.99 L 2048 1589.27 L 2048 1594.97 L 1445 1594.98 C 1331.69 1594.92 1214.83 1593.64 1101.77 1595.12 C 1101.7 1599.6 1101.76 1610.02 1101.04 1613.86 C 1102.28 1622.93 1111.45 1626.22 1119.73 1626.84 C 1220.19 1634.37 1321.71 1642.55 1419.42 1668.34 C 1433.22 1671.99 1465.51 1682.08 1476.78 1689.35 C 1498.84 1699.53 1536.31 1724.46 1512.47 1751.89 C 1498.66 1773.47 1440.22 1792.88 1415 1799.52 C 1335.06 1820.53 1249.42 1830.4 1167.17 1836.06 C 1049.16 1843.97 930.782 1844.7 812.688 1838.24 C 743.069 1834.09 673.699 1826.47 604.838 1815.41 C 565.315 1808.68 410.077 1782.23 422.229 1724.89 C 424.14 1720.81 426.498 1717.12 429.52 1713.76 C 485.337 1651.7 743.294 1629.54 825.968 1625.8 C 826.557 1615.51 826.947 1605.21 827.139 1594.91 L 0 1594.89 L 0 1589.37 L 827.358 1589.15 C 828.643 1572.56 828.578 1556.26 830.122 1539.6 C 816.872 1528.99 812.387 1504.16 807.092 1487.01 C 806.052 1485.08 778.385 1473.74 773.293 1471.26 C 761.696 1465.62 750.441 1459.3 739.587 1452.33 C 691.093 1421.18 639.227 1367.24 626.665 1309.67 C 628.366 1302.49 629.611 1299.86 634.138 1294.09 C 626.381 1280.6 617.734 1266.68 614.117 1251.26 C 607.878 1233 633.936 1215.43 648.564 1222.67 C 678.041 1237.24 701.241 1262.19 737.788 1255.99 C 764.783 1251.4 783.956 1236.1 800.261 1213.48 C 752.214 1206.35 686.894 1189.4 646.331 1161.83 C 632.213 1152.24 625.975 1142.36 623.14 1125.71 C 588.781 1108.36 540.859 1083.32 537.017 1040 C 510.094 1020.07 470.619 991.603 487.989 953.227 C 463.666 932.725 431.51 894.357 463.897 865.841 C 443.364 838.935 417.995 794.784 460.424 773.298 C 452.966 755.463 449.906 745.194 449.517 723.7 C 449.067 698.858 472.938 676.885 496.349 694.197 C 501.079 697.694 511.271 716.534 515.219 722.514 C 520.956 731.206 527.201 741.573 533.116 750.733 C 549.232 775.623 566.729 799.591 585.523 822.526 C 612.448 855.305 642.693 885.208 675.776 911.757 C 738.916 961.538 835.62 1009.64 916.611 1017.55 z"/>
<path transform="translate(0,0)" fill="rgb(245,166,35)" d="M 1065.06 1531.77 C 1079.16 1535.48 1084.67 1535.82 1098.68 1530.91 C 1097.51 1559.14 1095.6 1592.84 1096.09 1620.88 C 1127.45 1651.04 1249.02 1658.12 1291.21 1658.35 C 1264.01 1673.22 1266.32 1690.7 1275.99 1716.52 C 1242.34 1718.12 1208.89 1730.03 1185.24 1755.05 C 1177.9 1762.82 1170.79 1774.46 1169.47 1785.19 C 1168.2 1784.25 1166.94 1783.32 1165.7 1782.33 C 1140.25 1761.92 1048.72 1679.12 1046.44 1647.97 C 1045.63 1636.88 1053.25 1629.07 1060.11 1621.47 C 1062.99 1618.24 1062.18 1607.85 1062.16 1603.18 C 1063.65 1591.56 1063.69 1561.49 1064.19 1548.4 C 1064.87 1542.04 1065.03 1538.15 1065.06 1531.77 z"/>
<path transform="translate(0,0)" fill="rgb(250,247,240)" d="M 1045.53 1504.64 C 1049.42 1522.4 1057.74 1523.48 1060.16 1531.06 C 1066.87 1533.23 1063.58 1541.77 1064.19 1548.4 C 1063.69 1561.49 1063.65 1591.56 1062.16 1603.18 C 1061.27 1595.76 1062.19 1593.79 1060.52 1585.01 C 1060.52 1588.19 1060.82 1592.36 1059.73 1595.19 L 1058.54 1595.59 L 1057.46 1597.78 C 1052.25 1591.31 892.945 1598.79 871.414 1594.05 C 872.105 1592.35 871.609 1593.24 873.09 1591.48 C 876.805 1591.14 877.668 1591.29 880.921 1589.32 C 877.923 1589.23 876.876 1589.07 873.998 1588.61 C 871.567 1584.27 873.701 1547.53 873.968 1539.8 C 881.428 1533.31 883.11 1531.07 887.101 1522.06 C 892.483 1523.31 905.423 1524.27 911.169 1524.67 C 955.465 1527.88 999.929 1521.42 1041.48 1505.73 C 1043.24 1505.51 1043.82 1505.23 1045.53 1504.64 z"/>
<path transform="translate(0,0)" fill="url(#Gradient3)" d="M 1060.16 1531.06 C 1066.87 1533.23 1063.58 1541.77 1064.19 1548.4 C 1063.69 1561.49 1063.65 1591.56 1062.16 1603.18 C 1061.27 1595.76 1062.19 1593.79 1060.52 1585.01 C 1060.52 1588.19 1060.82 1592.36 1059.73 1595.19 L 1058.54 1595.59 L 1057.46 1597.78 C 1052.25 1591.31 892.945 1598.79 871.414 1594.05 C 872.105 1592.35 871.609 1593.24 873.09 1591.48 C 876.805 1591.14 877.668 1591.29 880.921 1589.32 C 896.283 1588.3 921.558 1589.1 938.111 1589.1 L 1057.27 1589.2 C 1058.58 1569.75 1058.58 1550.65 1060.16 1531.06 z"/>
<path transform="translate(0,0)" fill="rgb(255,255,255)" d="M 1132.06 656.89 C 1129.96 656.498 1125.11 656.541 1123.94 654.978 C 1102.11 625.85 1125.88 576.826 1164 583.901 C 1176.17 586.16 1186.9 593.279 1193.72 603.618 C 1211.9 631.456 1198.73 668.14 1164.2 673.965 C 1164.1 670.261 1163.54 645.207 1163.1 644.479 C 1154.64 630.442 1159.62 665.412 1157.28 671.198 C 1150.96 664.388 1141.65 657.268 1132.06 656.89 z"/>
<path transform="translate(0,0)" fill="rgb(30,58,95)" d="M 1150.63 623.455 C 1153.42 621.749 1156.93 621.707 1159.76 623.346 C 1162.6 624.985 1164.31 628.042 1164.23 631.316 C 1164.14 634.59 1162.28 637.557 1159.36 639.05 C 1155.08 641.244 1149.83 639.658 1147.48 635.462 C 1145.13 631.265 1146.52 625.961 1150.63 623.455 z"/>
<path transform="translate(0,0)" fill="rgb(59,158,196)" d="M 871.414 1594.05 C 892.945 1598.79 1052.25 1591.31 1057.46 1597.78 C 1056.27 1612.54 1060.47 1622.49 1042.45 1622.52 L 1039.72 1622.54 C 1032.38 1622.18 1024.28 1622.33 1016.89 1622.33 C 968.472 1622.32 919.412 1621.38 871.067 1624.04 C 871.057 1614 871.694 1604.17 871.414 1594.05 z"/>
<path transform="translate(0,0)" fill="rgb(245,166,35)" d="M 1049.95 1503.67 C 1051.86 1500.14 1052.52 1500.75 1056.68 1499.12 C 1080.07 1489.99 1100.69 1475.72 1121.21 1461.53 C 1121.79 1461.14 1123.02 1461.92 1123.51 1462.15 C 1115.47 1480.89 1115.25 1518.05 1093.46 1526.86 C 1080.17 1532.24 1057.55 1527.24 1052.94 1512.01 C 1052.07 1509.14 1051.18 1506.52 1049.95 1503.67 z"/>
<path transform="translate(0,0)" fill="rgb(11,8,35)" d="M 1157.2 672.21 L 1157.77 673.526 C 1158.74 676.368 1159.68 677.367 1161.73 679.576 C 1166.46 685.877 1167.41 684.478 1173.06 688.262 L 1168.18 690.308 C 1166.06 688.644 1156.75 678.249 1154.67 675.628 L 1157.2 672.21 z"/>
<path transform="translate(0,0)" fill="rgb(245,166,35)" d="M 870.436 1629.74 C 924.361 1626.23 991.577 1627.87 1046.53 1627.99 C 1041.91 1637.26 1038.22 1645.24 1042.05 1655.82 C 1053.57 1687.67 1146.33 1779.51 1170.6 1792.06 L 1172.38 1791.89 L 1173.15 1790.14 C 1175.5 1784.56 1176.49 1779.02 1179.6 1773.49 C 1201.54 1734.38 1245.86 1723.24 1286.68 1721.43 C 1269.77 1694.97 1266.78 1673.57 1300.32 1661.41 C 1304.18 1660.01 1308.02 1660 1311.29 1657.45 L 1310.95 1655.71 L 1307.37 1653.71 C 1265.24 1653.6 1176.32 1648.4 1136.09 1633.64 C 1190.03 1637.55 1254.97 1642.55 1308.13 1651.84 C 1363 1659.96 1420.43 1670.94 1472.01 1692.79 C 1477.89 1695.28 1491.07 1703.46 1496.95 1707.06 C 1506.21 1715.5 1512.17 1720.13 1514.88 1732.71 C 1511.77 1746.55 1501.76 1756.7 1489.74 1763.48 C 1434.82 1794.49 1361.41 1807.8 1299.91 1816.11 C 1115.44 1841.04 927.308 1841.98 742.008 1826.75 C 684.498 1822.03 438.245 1797.61 426.357 1733.04 C 428.159 1721.5 435.667 1713.82 444.792 1707.2 C 515.911 1655.61 735.977 1636.27 825.73 1631.14 C 815.267 1663.07 805.867 1689.13 823.026 1721.9 C 840.166 1754.64 869.097 1787.43 894.189 1814.22 C 930.393 1767.83 983.863 1763.33 1036.79 1782.62 C 1025.67 1761.18 1015.51 1746.04 1021.16 1719.45 C 1022.81 1711.69 1038.32 1699.84 1039.46 1695.42 C 1032.45 1685.17 886.375 1664.46 870.436 1629.74 z"/>
<path transform="translate(0,0)" fill="rgb(245,166,35)" d="M 835.286 1542.39 C 848.554 1546.66 855.16 1546.18 868.28 1543.26 C 867.87 1559.71 861.899 1625.54 868.094 1636.75 C 882.872 1663.47 998.735 1687.67 1031.09 1696.74 C 1005.78 1722.05 1012.33 1743.53 1024.9 1772.41 C 1014.5 1770 1005.8 1768.62 995.24 1767.35 C 953.137 1762.94 921.378 1774.86 893.027 1805.67 C 872.77 1783.76 834.03 1736.67 824.193 1710.06 C 819.99 1698.67 818.367 1686.5 819.44 1674.41 C 821.098 1656.72 828.249 1646.42 831.245 1630.31 C 832.695 1622.51 832.842 1604.27 833.14 1595.73 L 835.286 1542.39 z"/>
<path transform="translate(0,0)" fill="rgb(255,255,255)" d="M 897.32 638.704 L 897.581 636.936 C 903.158 601.15 925.62 563.841 955.118 542.643 C 1014.78 499.773 1088.72 514.079 1130.98 573.55 C 1115.64 584.757 1109.62 592.353 1102.91 610.113 C 1093.91 610.255 1084.91 610.536 1075.92 610.957 C 1068.39 592.24 1060.21 580.513 1040.95 572.296 C 1025.38 565.543 1007.74 565.398 992.065 571.892 C 976.656 578.262 955.13 599.556 955.611 616.825 C 948.909 622.32 924.727 613.87 897.32 638.704 z"/>
<path transform="translate(0,0)" fill="rgb(255,255,255)" d="M 1009.16 583.672 C 1034.75 579.862 1058.61 597.448 1062.55 623.021 C 1066.49 648.594 1049.02 672.541 1023.47 676.604 C 997.734 680.695 973.582 663.078 969.618 637.326 C 965.654 611.573 983.39 587.508 1009.16 583.672 z"/>
<path transform="translate(0,0)" fill="rgb(30,58,95)" d="M 1013.03 622.254 C 1016.06 621.594 1019.2 622.609 1021.27 624.912 C 1023.34 627.215 1024.01 630.452 1023.03 633.387 C 1022.05 636.323 1019.56 638.505 1016.53 639.102 C 1011.9 640.012 1007.4 637.026 1006.44 632.408 C 1005.49 627.789 1008.42 623.26 1013.03 622.254 z"/>
<path transform="translate(0,0)" fill="rgb(245,166,35)" d="M 813.563 1488.06 C 825.371 1491.53 837.167 1495.28 849.372 1497.11 C 852.184 1498.46 867.705 1500.96 870.709 1500.77 C 876.132 1502.13 882.079 1502.78 887.624 1503.58 C 880.762 1521.68 879.748 1536.75 856.502 1539.22 C 823.101 1542.78 820.544 1513.46 813.563 1488.06 z"/>
<path transform="translate(0,0)" fill="rgb(30,58,95)" d="M 1148.96 1004.82 C 1259.41 953.222 1338.55 899.742 1413.46 801.844 C 1426.2 785.392 1438.35 768.496 1449.9 751.187 C 1460.86 734.572 1471.26 717.372 1482.01 699.993 C 1489.94 687.182 1499.86 676.918 1517.16 681.903 C 1550.9 695.313 1535.7 743.104 1527.56 765.67 C 1549.39 768.674 1556.5 786.43 1553.42 806.611 C 1550.43 826.161 1538.5 843.021 1527.39 858.841 C 1554.48 886.577 1527.88 919.548 1506.89 940.736 C 1527.2 962.622 1502.48 996.244 1485.11 1011.77 C 1477.77 1018.33 1469.95 1024.15 1462.48 1030.48 C 1456.84 1071.62 1409.29 1104.93 1373.75 1119.2 C 1370.37 1136.2 1363.51 1144.26 1349 1153.69 C 1316.4 1174.88 1277.75 1190.16 1240.85 1201.9 C 1247.22 1312.22 1208.68 1381.37 1131.32 1453.96 C 1132.35 1450.55 1134.01 1447.84 1129.05 1448.66 L 1127.62 1448.77 C 1147.86 1431.08 1161.26 1418.37 1177.85 1396.43 C 1206.91 1358.5 1226.13 1313.96 1233.81 1266.8 C 1245.3 1193.79 1221.7 1127.46 1183.82 1066.05 C 1172.46 1047.65 1158.64 1030.24 1147.16 1011.7 C 1127.88 980.892 1111.76 948.225 1099.03 914.19 C 1080.12 862.157 1071 822.538 1106.6 776.26 L 1113.45 779.047 C 1096.42 796.995 1087.27 817.204 1088.34 842.222 C 1090.58 894.624 1122.55 960.391 1148.96 1004.82 z"/>
<path transform="translate(0,0)" fill="rgb(255,255,255)" d="M 1507.92 686.236 C 1530.51 688.75 1533.98 710.079 1531.55 728.867 C 1526.88 765.049 1505.27 795.745 1483.52 823.875 C 1479.03 829.676 1466.48 840.965 1464.42 846.553 L 1465.44 848.672 L 1467.37 848.851 C 1471.61 846.393 1475.48 841.236 1478.97 837.457 C 1498.17 816.667 1512.36 794.555 1525.41 769.685 C 1585.14 787.404 1515.49 867.523 1492.36 889.14 C 1485.26 895.767 1466.78 910.753 1465.03 918.398 L 1466.69 919.232 C 1480.05 912.765 1514.02 874.619 1525.21 862.213 C 1556.76 904.725 1482.32 953.782 1455.26 975.742 C 1453.77 976.951 1454.22 977.191 1454.47 979.069 C 1462.82 983.025 1496.59 946.292 1503.68 946.625 C 1526.68 970.407 1472.16 1019.45 1453.14 1028.63 C 1449.3 1030.49 1432.74 1041.5 1431.69 1044.18 L 1432.57 1045.61 C 1437.79 1046.71 1450.92 1037.54 1456.27 1034.36 C 1453.33 1044.78 1451.72 1048.71 1446.05 1057.86 C 1430.55 1081.96 1403.01 1098.35 1377.89 1110.9 C 1373.34 1113.18 1360.75 1118.45 1358.38 1122.1 C 1360.67 1123.71 1364.31 1123.24 1367.35 1123.26 C 1370.14 1150.29 1263.31 1188.28 1240.38 1195.88 C 1231.29 1144 1213.83 1102.59 1185.32 1058.39 C 1174.96 1042.33 1162.39 1025.87 1152.85 1009.58 C 1271.47 953.206 1354.76 894.087 1432.82 785.794 C 1452.65 758.283 1469.66 731.253 1487.25 702.301 C 1493.62 691.819 1496.28 688.705 1507.92 686.236 z"/>
<path transform="translate(0,0)" fill="rgb(245,166,35)" d="M 1132.06 656.89 C 1141.65 657.268 1150.96 664.388 1157.28 671.198 L 1157.2 672.21 L 1154.67 675.628 C 1156.75 678.249 1166.06 688.644 1168.18 690.308 L 1173.06 688.262 L 1174.88 689.213 C 1188.86 698.964 1200.99 704.708 1217.24 709.309 C 1239.07 715.49 1272.16 711.505 1278.8 739.645 C 1281.49 751.036 1272.4 756.904 1263.48 760.525 C 1263.29 769.24 1262.44 780.879 1254.66 786.518 C 1224.68 808.242 1174.61 795.923 1141.51 788.219 C 1134.03 786.477 1118 778.783 1113.45 779.047 L 1106.6 776.26 C 1087.5 768.974 1022.09 746.044 1037.44 712.613 C 1044.14 698.017 1066 699.329 1077.91 691.205 C 1092.52 681.242 1093.99 666.111 1112.42 660.841 C 1121.31 660.222 1123.38 656.876 1132.06 656.89 z"/>
<path transform="translate(0,0)" fill="rgb(0,0,0)" d="M 1132.06 656.89 C 1141.65 657.268 1150.96 664.388 1157.28 671.198 L 1157.2 672.21 L 1154.67 675.628 C 1146.19 667.265 1139.98 661.862 1127.02 661.506 C 1118.9 661.283 1106.38 667.296 1101.43 673.39 C 1095.04 682.499 1090.27 687.734 1081.83 694.404 C 1071.24 702.769 1038.61 705.281 1040.52 722.379 C 1043.29 747.085 1085.68 762.59 1104.4 769.737 C 1143.21 784.552 1182.62 795.65 1224.33 791.859 C 1238.35 790.595 1259.01 785.466 1258.52 766.205 C 1258.47 764.277 1257.97 764.321 1256.76 762.846 C 1247.78 762.15 1247.71 768.877 1244.27 773.73 C 1238.97 781.204 1223.65 784.79 1214.59 785.254 C 1169.06 787.585 1121.89 769.963 1082.49 748.326 C 1076.2 744.872 1061.76 737.665 1058.66 732.313 L 1059.09 730.08 C 1064.5 726.88 1074.61 732.788 1080.48 734.984 C 1092.78 739.471 1105.11 743.879 1117.47 748.206 C 1164.67 764.568 1221.83 774.424 1268.74 751.551 C 1270.71 750.594 1274.04 747.644 1274.13 745.721 C 1275.49 718.333 1231.33 719.007 1217.71 714.826 C 1196.68 708.371 1181.74 702.7 1168.18 690.308 L 1173.06 688.262 L 1174.88 689.213 C 1188.86 698.964 1200.99 704.708 1217.24 709.309 C 1239.07 715.49 1272.16 711.505 1278.8 739.645 C 1281.49 751.036 1272.4 756.904 1263.48 760.525 C 1263.29 769.24 1262.44 780.879 1254.66 786.518 C 1224.68 808.242 1174.61 795.923 1141.51 788.219 C 1134.03 786.477 1118 778.783 1113.45 779.047 L 1106.6 776.26 C 1087.5 768.974 1022.09 746.044 1037.44 712.613 C 1044.14 698.017 1066 699.329 1077.91 691.205 C 1092.52 681.242 1093.99 666.111 1112.42 660.841 C 1121.31 660.222 1123.38 656.876 1132.06 656.89 z"/>
<path transform="translate(0,0)" fill="rgb(220,88,36)" d="M 1089.69 743.427 C 1137.97 761.809 1178.1 775.826 1231.33 768.509 C 1233.59 767.594 1240.34 766.519 1243.01 765.997 C 1240.58 768.777 1238.63 771.173 1235.88 773.664 C 1197.95 793.874 1124.58 764.541 1088.77 745.345 L 1089.69 743.427 z"/>
<path transform="translate(0,0)" fill="rgb(177,68,30)" d="M 1231.33 768.509 C 1233.59 767.594 1240.34 766.519 1243.01 765.997 C 1240.58 768.777 1238.63 771.173 1235.88 773.664 C 1232.77 771.904 1231.32 772.174 1233.36 769.042 C 1233.06 768.259 1232.05 768.598 1231.33 768.509 z"/>
<path transform="translate(0,0)" fill="rgb(177,68,30)" d="M 1088.77 745.345 C 1087.84 744.85 1083.04 742.69 1082.87 741.624 L 1082.99 741.47 C 1084.19 741.01 1088.49 742.955 1089.69 743.427 L 1088.77 745.345 z"/>
<path transform="translate(0,0)" fill="rgb(0,0,0)" d="M 1114.33 689.845 C 1123.04 691 1125.47 691.755 1122.96 700.398 C 1113.45 701.967 1113.18 699.212 1114.33 689.845 z"/>
<path transform="translate(0,0)" fill="rgb(30,58,95)" d="M 621.776 464.94 C 627.499 456.933 642.55 443.155 650.133 435.836 L 696.785 390.74 C 753.08 336.363 809.452 281.998 866.347 228.257 C 870.126 224.095 875.402 223.221 880.845 222.205 C 982.845 203.166 1084.54 182.474 1186.52 163.267 C 1189.66 162.675 1193.15 161.924 1196.25 162.71 L 1197.01 165.164 C 1195.61 168.544 949.989 404.968 932.23 418.79 C 895.08 418.467 853.877 421.598 817.211 427.68 C 789.156 432.334 761.249 440.36 732.787 442.256 L 743.294 433.61 C 775.754 402.429 811.141 373.444 848.13 347.72 C 863.164 337.265 882.821 328.04 897.103 317.818 L 898.013 317.155 L 896.322 315.024 C 888.144 317.046 861.748 333.195 853.844 338.595 C 787.269 384.083 718.012 442.009 674.259 510.466 C 670.999 515.568 660.952 531.562 661.95 537.09 L 663.838 538.836 L 660.237 540.399 C 657.963 538.917 655.749 538.4 653.133 537.217 C 652.189 536.187 652.319 536.325 651.954 534.898 C 657.599 533.48 658.709 526.689 662.157 520.446 C 677.433 492.788 694.439 472.023 715.088 448.445 C 685.939 451.486 651.329 461.515 621.776 464.94 z"/>
<path transform="translate(0,0)" fill="rgb(0,0,0)" d="M 621.776 464.94 C 627.499 456.933 642.55 443.155 650.133 435.836 L 696.785 390.74 C 753.08 336.363 809.452 281.998 866.347 228.257 C 870.126 224.095 875.402 223.221 880.845 222.205 C 982.845 203.166 1084.54 182.474 1186.52 163.267 C 1189.66 162.675 1193.15 161.924 1196.25 162.71 L 1197.01 165.164 C 1195.61 168.544 949.989 404.968 932.23 418.79 C 895.08 418.467 853.877 421.598 817.211 427.68 C 789.156 432.334 761.249 440.36 732.787 442.256 L 743.294 433.61 C 753.287 434.933 779.687 428.347 791.055 426.25 C 804.32 423.807 817.638 421.66 830.999 419.812 C 863.657 415.626 896.56 413.642 929.485 413.873 C 943.648 401.627 959.39 385.7 973.411 372.57 C 1009.51 339.228 1045.07 305.295 1080.05 270.785 C 1114.42 237.282 1151.73 204.276 1184.21 168.936 C 1153.71 176.752 1110.41 183.733 1078.54 189.845 C 1009.55 202.747 940.688 216.314 871.962 230.544 C 857.228 245.581 840.327 260.143 824.998 274.687 C 808.463 290.375 791.965 306.27 775.611 322.15 L 698.363 396.76 C 677.923 416.605 656.935 437.7 635.772 456.696 C 663.397 451.693 694.891 448.045 721.932 440.4 C 774.208 389.513 823.875 346.079 888.88 311.907 C 894.828 308.717 899.309 301.197 905.874 299.427 C 923.935 294.558 923.029 322.784 907.808 322.699 C 903.859 322.677 900.515 319.846 898.013 317.155 L 896.322 315.024 C 888.144 317.046 861.748 333.195 853.844 338.595 C 787.269 384.083 718.012 442.009 674.259 510.466 C 670.999 515.568 660.952 531.562 661.95 537.09 L 663.838 538.836 L 660.237 540.399 C 657.963 538.917 655.749 538.4 653.133 537.217 C 652.189 536.187 652.319 536.325 651.954 534.898 C 657.599 533.48 658.709 526.689 662.157 520.446 C 677.433 492.788 694.439 472.023 715.088 448.445 C 685.939 451.486 651.329 461.515 621.776 464.94 z"/>
<path transform="translate(0,0)" fill="rgb(255,255,255)" d="M 904.934 305.481 C 907.989 303.938 911.718 305.151 913.281 308.196 C 914.845 311.241 913.658 314.977 910.623 316.562 C 907.56 318.161 903.78 316.96 902.201 313.886 C 900.622 310.811 901.849 307.039 904.934 305.481 z"/>
<path transform="translate(0,0)" fill="rgb(30,58,95)" d="M 1070.23 294.083 L 1072.96 293.277 C 1078.37 296.951 1099.94 335.579 1101.31 344.14 C 1104.13 361.831 1096.2 381.557 1085.9 395.562 C 1044.48 451.915 966.49 496.644 897.72 508.415 C 873.554 512.551 840.102 514.25 818.389 500.009 C 800.792 488.468 799.164 462.704 793.715 443.563 C 793.15 441.577 793.3 439.278 793.627 437.236 C 795.386 435.448 795.29 435.608 797.79 435.178 C 803.239 435.266 808.917 434.183 814.274 433.134 C 854.285 425.298 894.499 424.461 935.168 423.206 L 1035.47 327.778 C 1041.6 321.899 1066.58 299.244 1070.23 294.083 z"/>
<path transform="translate(0,0)" fill="rgb(0,0,0)" d="M 1070.23 294.083 L 1072.96 293.277 C 1078.37 296.951 1099.94 335.579 1101.31 344.14 C 1104.13 361.831 1096.2 381.557 1085.9 395.562 C 1044.48 451.915 966.49 496.644 897.72 508.415 C 873.554 512.551 840.102 514.25 818.389 500.009 C 800.792 488.468 799.164 462.704 793.715 443.563 C 793.15 441.577 793.3 439.278 793.627 437.236 C 795.386 435.448 795.29 435.608 797.79 435.178 C 805.183 457.904 804.254 487.884 827.661 498.363 C 859.855 512.776 911.452 503.108 943.016 491.173 C 1000.09 468.93 1060.76 431.487 1090.35 376.15 C 1108.82 341.597 1079.43 322.285 1070.23 294.083 z"/>
<path transform="translate(0,0)" fill="rgb(0,0,0)" d="M 1704.5 352.742 C 1706.02 352.94 1705.14 352.678 1706.93 354.046 C 1712.29 373.865 1691.88 445.347 1682.43 465.097 C 1666.52 502.094 1633.96 529.702 1593.88 536.981 C 1566.66 541.924 1535.88 539.033 1522.3 569.638 C 1520.05 568.598 1520.87 569.148 1519.29 566.997 C 1518.75 561.188 1525.71 548.296 1528.72 542.87 C 1549.95 504.547 1593.17 505.691 1627.62 485.917 C 1642.06 459.886 1656.6 409.468 1651.14 380.493 C 1669.02 371.418 1686.81 362.168 1704.5 352.742 z"/>
<path transform="translate(0,0)" fill="rgb(245,166,35)" d="M 1699.81 360.883 L 1701.24 361.706 C 1702.21 366.837 1700.84 378.345 1700.03 383.658 C 1695.08 416.11 1685.23 454.641 1667.32 482.101 C 1651.48 506.386 1626.04 525.134 1597.42 530.756 L 1596.7 530.692 L 1596.46 529.536 C 1642.85 491.698 1656.54 441.318 1657.17 383.1 C 1671.4 376.124 1685.81 368.326 1699.81 360.883 z"/>
<path transform="translate(0,0)" fill="rgb(245,166,35)" d="M 1620.47 495.181 C 1620.7 497.585 1617.46 501.299 1615.81 503.407 C 1605.27 516.952 1587.84 533.336 1570 534.888 C 1554.87 536.204 1547.38 540.095 1534.03 545.95 C 1534.07 545.455 1534.11 544.363 1534.32 543.971 C 1550.97 512.282 1591.73 509.752 1619.7 495.576 L 1620.47 495.181 z"/>
<path transform="translate(0,0)" fill="rgb(0,0,0)" d="M 1704.7 951.718 C 1714.06 961.434 1727.56 979.385 1737.1 990.648 C 1710.66 1041.06 1711.67 1085.93 1742.07 1134.5 C 1737.77 1144.41 1726.14 1163.03 1720.25 1173.54 C 1718.58 1175.42 1719.6 1174.78 1717.16 1175.46 C 1716.29 1174.95 1715.15 1174.35 1714.52 1173.58 C 1684.48 1136.19 1666.45 1090.5 1668.62 1042.15 C 1670.2 1006.7 1680.07 977.149 1704.7 951.718 z"/>
<path transform="translate(0,0)" fill="rgb(245,166,35)" d="M 1704.36 959.857 C 1711.62 967.177 1723.21 982.253 1730.84 990.972 C 1703.71 1042.43 1708.02 1085.74 1736.28 1135.38 C 1730.81 1145.09 1724.75 1154.79 1719.16 1164.55 C 1718.25 1166.23 1718.89 1165.37 1716.99 1166.92 C 1713.63 1165.43 1706.58 1154.02 1704.3 1150.45 C 1684.86 1120.52 1674.34 1085.68 1673.98 1050 C 1673.47 1019.12 1682.27 982.558 1704.36 959.857 z"/>
<path transform="translate(0,0)" fill="rgb(0,0,0)" d="M 1817.72 734.251 C 1823.02 735.144 1858.04 752.482 1867.28 756.237 C 1862.67 818.143 1831.72 884.143 1786.77 926.927 C 1781.78 931.453 1778.61 933.917 1772.77 937.236 C 1765.17 926.693 1754.22 910.349 1747.56 899.429 C 1795.54 855.756 1815.11 797.552 1817.72 734.251 z"/>
<path transform="translate(0,0)" fill="rgb(245,166,35)" d="M 1823.19 742.652 C 1836.28 748.575 1848.24 753.724 1861.33 760.022 C 1853.41 820.365 1830.71 878.629 1785.27 920.787 C 1781.67 923.972 1778.04 927.129 1774.38 930.255 C 1767.49 920.94 1760.75 910.02 1754.41 900.213 C 1797.1 855.459 1820.56 805.261 1823.19 742.652 z"/>
<path transform="translate(0,0)" fill="rgb(0,0,0)" d="M 488.554 123.209 C 497.469 122.327 520.104 122.593 527.197 127.629 C 527.504 131.117 516.731 135.424 513.038 138.261 C 508.224 142.012 503.953 146.413 500.349 151.338 C 485.575 171.26 482.058 194.809 474.351 217.896 C 461.649 255.952 439.439 276.889 404.304 294.773 C 397.478 297.593 370.809 278.017 363.514 273.305 C 399.504 250.042 422.99 226.565 434.542 184.401 C 443.37 152.182 452 130.425 488.554 123.209 z"/>
<path transform="translate(0,0)" fill="rgb(245,166,35)" d="M 495.433 128.377 C 502.142 128.343 508.566 129.084 515.238 129.721 C 456.595 175.127 491.735 243.178 407.967 287.239 C 403.762 289.451 401.011 289.675 396.513 288.151 C 388.469 282.864 381.396 278.349 373.021 273.497 C 406.4 251.919 429.394 223.5 439.78 184.983 C 448.199 153.761 458.714 131.242 495.433 128.377 z"/>
<path transform="translate(0,0)" fill="rgb(0,0,0)" d="M 274.706 702.634 C 277.453 704.473 287.268 720.876 290.836 724.748 C 293.795 727.959 296.851 731.162 300.131 734.361 C 278.626 788.172 274.56 839.084 309.613 887.622 C 309.519 894.758 313.083 917.41 309.167 920.623 C 306.06 920.656 304.714 919.139 302.163 917.241 C 299.342 915.089 296.577 912.866 293.87 910.573 C 239.819 864.316 234.074 791.602 260.39 728.429 C 264.188 719.311 268.217 710.177 274.706 702.634 z"/>
<path transform="translate(0,0)" fill="rgb(245,166,35)" d="M 274.356 712.467 C 279.187 716.713 285.09 727.691 293.851 735.468 C 271.893 794.095 271.191 837.09 304.207 890.739 C 304.148 895.093 305.961 908.983 303.331 911.396 L 300.159 909.438 C 276.906 889.433 263.056 870.021 255.066 839.835 C 244.429 799.65 253.239 748.016 274.356 712.467 z"/>
<path transform="translate(0,0)" fill="rgb(0,0,0)" d="M 1521.83 1163.81 L 1523.15 1164.97 C 1524.83 1169.32 1524.45 1177.73 1524.39 1182.61 C 1523.76 1240.55 1502.97 1311.37 1447.28 1339.23 C 1443.95 1340.89 1437.35 1344.92 1434.04 1344.82 L 1432.79 1342.76 C 1431.01 1334.17 1427.63 1323.75 1425.11 1315.19 C 1433.48 1310.71 1440.36 1307.27 1447.13 1300.4 C 1474.59 1272.56 1478.7 1224.96 1479.47 1188.3 C 1493.17 1181.42 1508.34 1171.57 1521.83 1163.81 z"/>
<path transform="translate(0,0)" fill="rgb(245,166,35)" d="M 1516.89 1172.78 L 1517.94 1172.99 C 1521.11 1177.34 1516.92 1213.26 1515.89 1219.91 C 1510.02 1258.04 1491.59 1302.78 1459.37 1326.08 C 1454.65 1329.5 1442.45 1338.04 1436.83 1337.18 L 1431.05 1317.61 C 1477.39 1294.36 1482.93 1237.41 1484.8 1191.3 C 1495.71 1185.5 1506.41 1179.33 1516.89 1172.78 z"/>
<path transform="translate(0,0)" fill="rgb(0,0,0)" d="M 1301.76 334.25 C 1302.94 334.907 1304.63 335.453 1304.89 336.709 C 1307.73 350.519 1308.77 361.733 1314.36 374.96 C 1326.06 402.606 1339.14 403.957 1364.06 413.921 C 1328.28 425.223 1314.2 438.84 1307.47 478.911 C 1306.41 485.263 1307.93 491.347 1303.5 496.232 C 1302.18 495.07 1300.98 493.79 1300.81 491.98 C 1298.22 463.868 1291.82 437.738 1265.96 422.161 C 1260.7 418.996 1249.12 417.234 1246.42 413.316 C 1265.57 404.253 1277.87 402.059 1288.78 382.521 C 1298.04 365.958 1298.48 352.075 1301.76 334.25 z"/>
<path transform="translate(0,0)" fill="rgb(245,166,35)" d="M 1302.95 360.505 C 1304.27 362.533 1309.63 376.325 1310.84 379.298 C 1318.52 398.171 1328.05 405.737 1346.38 413.205 C 1344.24 414.284 1342.13 415.433 1340.06 416.652 C 1317.06 430.206 1309.8 445.94 1303.42 470.891 C 1296.28 444.071 1286.14 424.997 1259.58 413.517 C 1262.49 412.43 1265.34 411.174 1268.1 409.756 C 1288.5 399.47 1296.17 380.702 1302.95 360.505 z"/>
<path transform="translate(0,0)" fill="rgb(0,0,0)" d="M 435.888 1161.16 C 437.37 1161.6 439.317 1161.96 439.685 1163.64 C 442.832 1177.99 443.313 1186.53 449.383 1199.45 C 457.592 1216.93 479.653 1220.67 482.553 1223.76 C 482.523 1224.42 482.493 1225.08 482.463 1225.74 C 475.783 1229.38 461.558 1236.27 456.656 1241.57 C 441.451 1258.02 444.371 1276 439.153 1291.84 C 438.508 1291.56 436.237 1290.49 436.018 1289.45 C 432.801 1274.31 430.194 1254.23 419.488 1242.16 C 413.277 1235.16 399.588 1230.73 392.66 1224.19 C 400.33 1220.45 406.04 1218.75 413.235 1213.7 C 431.595 1200.83 432.702 1181.64 435.888 1161.16 z"/>
<path transform="translate(0,0)" fill="rgb(245,166,35)" d="M 437.734 1182.84 C 442.741 1193.49 441.968 1203.18 452.994 1213 C 459.615 1218.89 462.952 1220.67 470.372 1225.11 C 448.604 1239.6 446.14 1243.56 437.57 1268.27 C 435.794 1264.97 435.993 1263.8 434.799 1260.42 C 428.141 1241.57 421.732 1234.97 405.226 1225.86 L 404.451 1225.42 C 426.106 1214.1 430.841 1205.76 437.734 1182.84 z"/>
<path transform="translate(0,0)" fill="rgb(0,0,0)" d="M 535.153 1410.41 C 535.841 1410.83 537.266 1412.07 537.95 1412.63 C 539.23 1416.52 537.789 1429.08 537.29 1433.55 C 532.17 1479.38 501.877 1474.64 476.746 1502.45 C 471.27 1508.51 463.394 1528.58 460.635 1536.49 C 459.534 1539.64 458.788 1539.83 456.512 1540.81 C 452.942 1531.83 449.86 1513.81 450.655 1504.29 C 454.459 1458.76 490.256 1463.81 516.501 1441.25 C 525.776 1433.28 530.85 1421.28 535.153 1410.41 z"/>
<path transform="translate(0,0)" fill="rgb(245,166,35)" d="M 531.671 1430.95 C 533.412 1432.93 531.648 1436.99 531.281 1439.51 C 526.448 1472.71 493.512 1475.69 474.284 1497.28 C 465.078 1507.62 464.28 1514.58 458.354 1525.78 C 448.007 1495.74 465.794 1468 495.199 1460.09 C 508.705 1456.45 523.91 1442.46 531.671 1430.95 z"/>
<path transform="translate(0,0)" fill="rgb(0,0,0)" d="M 1537.99 1464.26 C 1582.32 1464.24 1592.24 1495.53 1600.26 1533.49 C 1601.3 1538.42 1605.28 1553.69 1600.91 1556.11 C 1591.42 1554.73 1582.51 1553.29 1573.06 1551.59 L 1572.9 1550.87 C 1569.5 1536.27 1568.49 1524.04 1562.51 1509.54 C 1556.62 1495.25 1550.94 1478.88 1536.93 1470.19 C 1533.43 1468.02 1535.95 1466.31 1537.99 1464.26 z"/>
<path transform="translate(0,0)" fill="rgb(245,166,35)" d="M 1545.58 1469.77 C 1548.36 1470.05 1550.76 1470.29 1553.51 1470.73 C 1585.08 1475.82 1595.66 1524.01 1597.35 1550.17 C 1591.08 1549.16 1583.99 1548.39 1577.64 1547.65 L 1577.39 1546.3 C 1571.56 1513.6 1565.62 1495.69 1545.58 1469.77 z"/>
<path transform="translate(0,0)" fill="url(#Gradient2)" d="M 589.754 596.17 C 597.562 590.944 608.091 581.22 617.077 578.161 C 619.495 577.338 621.504 579.169 623.245 580.407 C 624.94 582.62 625.008 582.483 627.4 584.059 C 629.3 586.588 629.241 586.16 630.471 589.049 C 631.473 592.892 631.646 593.238 631.815 597.137 C 630.137 597.392 628.456 597.63 626.772 597.85 C 625.477 603.121 623.882 607.141 620.453 611.391 C 618.403 612.325 618.044 612.797 616.494 614.505 C 611.075 613.82 612.928 612.504 611.414 612.109 C 610.924 612.29 610.606 613.266 610.405 613.682 L 609.65 614.302 C 604.843 617.867 601.072 621.659 596.514 625.487 C 584.512 635.896 536.187 667.94 520.833 665.241 C 518.761 662.844 519.126 664.19 519.116 661.322 C 522.344 658.811 537.635 655.581 542.783 653.269 C 560.608 645.265 576.06 635.478 590.958 622.98 L 589.596 621.283 C 574.942 630.272 528.953 654.978 511.596 653.186 C 508.941 650.889 509.686 652.261 508.927 649.152 C 511.148 647.732 522.266 645.38 525.616 644.685 C 549.999 639.625 568.017 628.79 588.372 614.523 L 588.723 611.564 C 566.487 624.371 545.365 635.186 519.538 638.429 C 513.654 639.167 507.539 640.662 501.737 638.902 L 501.165 637.622 C 501.812 636.888 502.458 636.154 503.104 635.421 C 513.124 633.169 523.512 633.186 533.436 630.301 C 549.793 625.545 559.366 621.666 574.035 613.896 L 581.309 609.82 L 578.891 608.899 C 581.201 607.414 583.462 606.151 585.797 604.727 C 584.596 603.099 583.82 601.966 582.738 600.222 C 584.96 598.772 587.429 597.473 589.754 596.17 z"/>
<path transform="translate(0,0)" fill="rgb(11,8,35)" d="M 582.738 600.222 C 584.96 598.772 587.429 597.473 589.754 596.17 L 590.136 597.971 C 590.656 600.208 590.435 600.907 589.866 603.088 C 588.499 603.606 587.142 604.153 585.797 604.727 C 584.596 603.099 583.82 601.966 582.738 600.222 z"/>
<path transform="translate(0,0)" fill="rgb(11,8,35)" d="M 626.772 597.85 C 628.462 593.568 627.958 592.793 630.471 589.049 C 631.473 592.892 631.646 593.238 631.815 597.137 C 630.137 597.392 628.456 597.63 626.772 597.85 z"/>
<path transform="translate(0,0)" fill="rgb(151,148,180)" d="M 588.723 611.564 C 589.944 610.376 596.634 605.637 597.965 605.373 C 598.262 605.513 598.143 605.415 598.329 605.663 C 598.396 606.693 589.552 613.628 588.372 614.523 L 588.723 611.564 z"/>
<path transform="translate(0,0)" fill="rgb(151,148,180)" d="M 589.866 603.088 C 588.621 605.818 583.831 608.149 581.309 609.82 L 578.891 608.899 C 581.201 607.414 583.462 606.151 585.797 604.727 C 587.142 604.153 588.499 603.606 589.866 603.088 z"/>
<path transform="translate(0,0)" fill="rgb(90,97,135)" d="M 593.046 618.966 C 593.659 618.444 597.425 614.772 598.437 615.813 C 598.798 617.492 595.041 620.105 594.062 620.937 L 593.046 618.966 z"/>
<path transform="translate(0,0)" fill="rgb(187,189,205)" d="M 589.596 621.283 C 590.741 620.503 591.891 619.731 593.046 618.966 L 594.062 620.937 C 592.992 621.667 592.044 622.288 590.958 622.98 L 589.596 621.283 z"/>
<path transform="translate(0,0)" fill="rgb(0,0,0)" d="M 173.751 973.427 C 182.104 974.916 197.672 979.923 206.064 982.823 C 206.291 1007.72 210.574 1033.42 224.378 1054.65 C 227.768 1059.86 234.963 1064.16 236.183 1068.82 C 227.682 1072.02 215.041 1069.08 207.625 1064.6 C 180.124 1047.99 177.014 1001.37 173.751 973.427 z"/>
<path transform="translate(0,0)" fill="rgb(245,166,35)" d="M 179.986 980.956 C 180.999 981.222 182.013 981.487 183.026 981.753 C 189.043 983.229 195.043 984.771 201.026 986.38 C 201.718 1009.57 205.598 1030.6 216.361 1051.39 C 218.717 1055.94 223.191 1060.47 224.918 1064.77 C 194.048 1060.1 187.123 1030.54 182.732 1004.01 C 181.455 996.371 180.539 988.678 179.986 980.956 z"/>
<path transform="translate(0,0)" fill="rgb(0,0,0)" d="M 1687.1 622.328 C 1687.76 622.62 1690.07 623.939 1690.15 624.325 C 1692.22 633.686 1693.99 646.877 1698.62 655.314 C 1702.4 662.209 1716.96 668.149 1723.79 673.801 C 1703.92 684.513 1697.54 686.621 1693.1 711.985 C 1692.15 717.433 1692.51 721.244 1690.61 726.566 C 1686.49 724.356 1686.26 723.587 1685.44 718.163 C 1681.93 695.136 1681.29 690.345 1660.82 677.966 C 1658.45 676.537 1654.61 674.5 1653.11 672.104 C 1659.03 669.142 1668.29 665.538 1672.8 661.168 C 1683.82 650.514 1682.69 635.504 1687.1 622.328 z"/>
<path transform="translate(0,0)" fill="rgb(245,166,35)" d="M 1688.38 645.702 C 1697.56 661.445 1693.26 661.381 1711.97 673.148 C 1698.26 682.536 1695.29 685.816 1688.98 701.485 C 1680.94 686.806 1679.85 682.997 1665.41 673.223 C 1678.43 663.957 1682.01 661.482 1688.38 645.702 z"/>
<path transform="translate(0,0)" fill="rgb(0,0,0)" d="M 424.525 408.55 C 427.966 410.35 428.473 410.365 428.824 414.477 C 430.148 430.532 437.121 449.679 454.19 454.595 C 456.943 455.388 461.176 456.601 460.102 459.781 C 459.514 461.519 449.593 464.839 447.332 466.387 C 437.305 473.247 431.951 483.143 430.052 495.003 C 429.449 498.407 429.266 506.624 427.473 509.084 L 426.674 510.242 C 420.603 506.987 422.518 505.338 421.664 498.003 C 419.589 480.179 410.588 467.085 393.117 461.483 C 389.354 460.276 389.827 455.951 393.96 455.128 C 410.665 451.806 420.91 435.759 421.908 419.492 C 422.142 415.846 422.994 411.647 424.525 408.55 z"/>
<path transform="translate(0,0)" fill="rgb(245,166,35)" d="M 425.107 430.601 C 435.017 447.976 430.115 446.53 448.916 458.743 C 435.539 467.213 432.245 471.427 425.628 486.316 C 415.725 473.41 420.684 468.662 401.424 458.917 C 414.956 450.46 420.098 446.308 425.107 430.601 z"/>
<path transform="translate(0,0)" fill="rgb(0,0,0)" d="M 1321.76 1341.19 C 1327.84 1341.99 1326.59 1342.09 1327.33 1347.99 C 1328.94 1360.76 1334.11 1375.65 1347.41 1380.29 C 1349.36 1380.97 1354.89 1382.7 1354.76 1385.56 C 1353.01 1387.67 1346.45 1389.92 1343.69 1391.65 C 1328.99 1400.87 1328.86 1415.39 1326.52 1430.79 C 1319.5 1428.64 1321.84 1426.81 1320.65 1419.01 C 1318.61 1405.65 1313.21 1393.71 1299.46 1389.17 C 1297.24 1388.43 1293.03 1387.66 1292.97 1384.63 C 1294.61 1382.58 1302.1 1380.31 1305.43 1377.91 C 1320.56 1367.01 1319.25 1355.42 1321.76 1341.19 z"/>
<path transform="translate(0,0)" fill="rgb(245,166,35)" d="M 1323.55 1361.78 C 1325.27 1363.56 1326.4 1366.96 1327.67 1369.43 C 1331.6 1377.06 1335.43 1379.73 1341.84 1384.95 C 1330.7 1395.37 1331.23 1395.07 1324.06 1407.8 C 1317.39 1393.95 1317.43 1392.58 1304.49 1385.28 C 1314.9 1377.51 1318.6 1373.8 1323.55 1361.78 z"/>
<path transform="translate(0,0)" fill="rgb(0,0,0)" d="M 735.731 671.216 C 739.211 671.885 740.874 671.202 741.087 674.962 C 741.938 689.618 747.77 706.632 763.535 710.753 C 765.091 711.16 768.871 711.853 768.219 713.984 C 766.829 718.525 758.243 719.566 753.666 723.655 C 743.277 732.935 742.859 745.019 741.601 757.849 C 735.211 756.836 735.919 756.273 735.137 749.002 C 733.74 736.008 727.768 723.752 715.043 718.532 C 713.679 717.972 707.576 716.657 708.716 713.289 C 711.166 709.377 718.917 708.611 723.439 704.891 C 733.769 696.392 733.84 683.259 735.731 671.216 z"/>
<path transform="translate(0,0)" fill="rgb(245,166,35)" d="M 738.53 691.761 C 743.628 702.524 745.377 707.58 756.29 713.624 C 746.763 722.364 742.832 724.645 738.882 737.226 C 732.169 723.695 732.523 723.139 719.496 714.129 C 727.693 708.385 733.394 704.815 737.258 695.031 L 738.53 691.761 z"/>
<path transform="translate(0,0)" fill="rgb(0,0,0)" d="M 754.833 866.428 C 763.273 867.603 773.94 871.237 782.568 873.62 C 782.97 889.377 788.836 904.505 799.161 916.415 C 802.208 919.96 807.991 922.466 807.61 926.711 C 768.289 939.984 755.541 896.659 754.833 866.428 z"/>
<path transform="translate(0,0)" fill="rgb(245,166,35)" d="M 760.462 872.238 C 765.841 874.125 771.188 876.103 776.5 878.171 C 781.068 899.067 785.696 907.757 798.469 924.07 C 769.062 923.981 762.991 896.847 760.462 872.238 z"/>
<path transform="translate(0,0)" fill="rgb(0,0,0)" d="M 1393.98 183.157 C 1394.52 183.263 1396.97 183.635 1397.3 184.182 C 1399.51 190.42 1401.07 199.157 1403.12 205.431 C 1406.86 216.861 1423.94 219.435 1424.23 223.72 C 1422.62 226.216 1416.44 228.385 1413.62 230.239 C 1399.75 239.351 1401.47 251.472 1398.57 265.859 C 1392.83 263.96 1393.79 263.735 1392.9 257.012 C 1391.18 243.993 1387.5 233.052 1374.53 227.88 C 1360.14 222.143 1373.48 220.103 1379.62 216.385 C 1391.07 209.019 1390.96 195.384 1393.98 183.157 z"/>
<path transform="translate(0,0)" fill="rgb(245,166,35)" d="M 1395.7 204.628 C 1403.33 211.845 1399.99 215.042 1412.88 223.225 C 1403.01 231.771 1402.88 232.201 1396.14 243.196 C 1391.61 233.368 1387.56 229.043 1378.99 223.059 C 1389.25 216.053 1389.34 215.865 1395.7 204.628 z"/>
<path transform="translate(0,0)" fill="rgb(0,0,0)" d="M 748.311 138.299 C 759.831 140.354 750.934 148.487 757.634 159.229 C 760.569 165.648 764.417 171.448 771.583 173.698 C 787.793 178.79 769.435 182.873 765.739 185.71 C 755.488 193.582 754.985 206.539 753.566 218.278 C 750.237 218.199 748.211 218.806 747.922 214.525 C 746.352 191.267 738.719 186.143 719.867 177.592 C 745.72 165.844 743.692 167.12 748.311 138.299 z"/>
<path transform="translate(0,0)" fill="rgb(245,166,35)" d="M 750.343 157.858 C 756.893 169.637 755.653 169.945 767.163 178.582 C 756.818 185.758 756.376 186.235 750.969 197.061 C 748.259 194.705 747.309 190.544 744.701 187.258 C 741.509 183.234 738.731 181.016 734.978 177.647 C 743.978 171.062 746.278 168.231 750.343 157.858 z"/>
<path transform="translate(0,0)" fill="rgb(0,0,0)" d="M 1653.58 182.707 C 1655.31 184.444 1654.77 183.773 1655.87 186.002 C 1655.22 189.102 1518.38 327.771 1505.7 340.611 C 1503.22 339.724 1504.19 340.469 1502.96 338.051 C 1504.63 332 1637.91 197.437 1653.58 182.707 z"/>
<path transform="translate(0,0)" fill="rgb(30,58,95)" d="M 639.408 565.119 C 628.398 551.571 638.537 532.381 651.954 534.898 C 652.319 536.325 652.189 536.187 653.133 537.217 C 655.749 538.4 657.963 538.917 660.237 540.399 L 663.838 538.836 C 673.404 546.205 671.847 558.726 663.016 566.239 C 658.301 570.863 651.871 571.502 645.904 569.102 C 646.931 566.181 644.645 565.574 642.463 563.385 L 639.408 565.119 z"/>
<path transform="translate(0,0)" fill="rgb(11,8,35)" d="M 639.408 565.119 C 628.398 551.571 638.537 532.381 651.954 534.898 C 652.319 536.325 652.189 536.187 653.133 537.217 L 651.245 537.411 C 646.566 537.763 644.387 540.088 641.551 543.575 C 635.536 550.969 637.262 555.974 642.463 563.385 L 639.408 565.119 z"/>
<path transform="translate(0,0)" fill="rgb(11,8,35)" d="M 663.838 538.836 C 673.404 546.205 671.847 558.726 663.016 566.239 C 662.585 565.846 662.153 565.452 661.722 565.059 C 668.142 562.851 670.042 546.526 660.237 540.399 L 663.838 538.836 z"/>
<path transform="translate(0,0)" fill="rgb(0,0,0)" d="M 1865.13 376.529 C 1866.2 376.699 1867.19 376.786 1868.07 377.453 C 1868.6 377.855 1868.9 378.42 1868.92 379.091 C 1868.96 380.459 1782.39 467.95 1773.23 477.337 C 1773.11 477.253 1768.6 474.16 1769.37 473.406 C 1800.97 442.195 1832.36 406.681 1865.13 376.529 z"/>
<path transform="translate(0,0)" fill="rgb(0,0,0)" d="M 626.772 597.85 C 628.456 597.63 630.137 597.392 631.815 597.137 C 629.834 601.983 628.918 606.998 626.421 611.633 C 609.54 642.969 581.181 668.584 550.135 685.522 C 548.381 686.479 545.026 686.267 545.401 683.043 C 552.585 677.813 564.819 670.628 571.777 665.287 C 586.014 654.404 598.788 641.73 609.783 627.58 C 611.162 626.179 611.648 625.339 612.744 623.718 L 611.475 621.652 C 613.149 619.258 614.945 616.986 616.494 614.505 C 618.044 612.797 618.403 612.325 620.453 611.391 C 623.882 607.141 625.477 603.121 626.772 597.85 z"/>
<path transform="translate(0,0)" fill="rgb(90,97,135)" d="M 616.494 614.505 C 618.044 612.797 618.403 612.325 620.453 611.391 C 618.294 615.404 615.473 620.075 612.744 623.718 L 611.475 621.652 C 613.149 619.258 614.945 616.986 616.494 614.505 z"/>
<path transform="translate(0,0)" fill="rgb(0,0,0)" d="M 1780.67 1320.7 C 1783.04 1322.45 1784.53 1323.91 1781.91 1326.5 C 1762.47 1345.71 1743.39 1365.36 1724.22 1384.83 C 1716.46 1392.7 1708.83 1401 1700.8 1408.5 C 1700.61 1408.3 1697.27 1405.13 1698.02 1404.46 C 1724.26 1380.72 1753.44 1341.97 1780.67 1320.7 z"/>
<path transform="translate(0,0)" fill="url(#Gradient1)" d="M 610.405 613.682 C 610.606 613.266 610.924 612.29 611.414 612.109 C 612.928 612.504 611.075 613.82 616.494 614.505 C 614.945 616.986 613.149 619.258 611.475 621.652 L 612.744 623.718 C 611.648 625.339 611.162 626.179 609.783 627.58 L 607.851 625.935 C 586.354 647.46 561.884 667.138 532.971 677.908 C 531.199 678.568 528.757 673.766 530.962 672.965 C 557.722 663.243 578.098 647.068 598.49 627.534 L 596.514 625.487 C 601.072 621.659 604.843 617.867 609.65 614.302 L 610.405 613.682 z"/>
<path transform="translate(0,0)" fill="rgb(187,189,205)" d="M 610.405 613.682 C 607.15 618.589 602.579 623.26 598.49 627.534 L 596.514 625.487 C 601.072 621.659 604.843 617.867 609.65 614.302 L 610.405 613.682 z"/>
<path transform="translate(0,0)" fill="rgb(187,189,205)" d="M 607.851 625.935 C 609.138 624.475 610.257 623.192 611.475 621.652 L 612.744 623.718 C 611.648 625.339 611.162 626.179 609.783 627.58 L 607.851 625.935 z"/>
<path transform="translate(0,0)" fill="rgb(0,0,0)" d="M 263.748 515.691 C 271.292 518.873 263.306 523.956 259.031 528.192 C 235.743 551.264 213.317 575.249 190.136 598.396 C 182.026 596.276 190.169 590.645 193.2 587.522 C 216.565 563.447 240.357 539.735 263.748 515.691 z"/>
<path transform="translate(0,0)" fill="rgb(0,0,0)" d="M 572.059 611.975 C 561.947 614.915 553.942 618.26 542.988 620.774 L 538.49 621.806 C 524.973 624.784 513.73 625.666 499.963 625.188 C 497.7 625.11 496.35 623.614 497.028 621.527 C 497.917 618.791 506.8 620.966 508.967 620.143 C 533.73 619.874 560.766 611.598 582.738 600.222 C 583.82 601.966 584.596 603.099 585.797 604.727 C 583.462 606.151 581.201 607.414 578.891 608.899 C 576.51 609.924 574.399 610.84 572.059 611.975 z"/>
<path transform="translate(0,0)" fill="rgb(0,0,0)" d="M 212.063 1236.55 C 213.084 1236.78 214.002 1236.9 214.838 1237.55 C 215.317 1237.92 215.639 1238.42 215.666 1239.04 C 215.786 1241.76 166.47 1290.19 160.941 1295.46 C 152.748 1293.65 160.289 1287.93 163.551 1284.72 C 179.776 1268.76 195.547 1252.22 212.063 1236.55 z"/>
<path transform="translate(0,0)" fill="rgb(0,0,0)" d="M 636.403 271.656 C 643.779 274.384 635.288 278.703 632.375 280.793 C 618.966 290.416 610.5 302.364 600.776 315.3 C 594.844 310.473 597.513 310.125 602.388 303.613 C 611.924 290.874 622.852 280.076 636.403 271.656 z"/>
<path transform="translate(0,0)" fill="rgb(0,0,0)" d="M 1369.5 614.466 C 1369.73 614.607 1373.84 616.865 1373.56 617.501 C 1368.67 628.506 1362 639.858 1356.12 650.499 C 1348.5 647.079 1353.71 643.711 1357.2 637.048 C 1361.16 629.509 1365.45 621.984 1369.5 614.466 z"/>
<path transform="translate(0,0)" fill="rgb(0,0,0)" d="M 1892.61 1144.6 C 1893.32 1145.08 1895.23 1146.19 1894.98 1147.05 C 1893.06 1153.38 1880.07 1176.07 1877.08 1180.34 C 1876.76 1180.04 1873.42 1177.32 1873.83 1176.45 C 1878.09 1167.51 1885.93 1151.18 1892.61 1144.6 z"/>
<path transform="translate(0,0)" fill="rgb(0,0,0)" d="M 357.361 1061.4 C 357.862 1061.56 361.993 1062.77 361.397 1064.08 C 356.849 1074.08 349.962 1087.62 344.08 1096.54 C 337.402 1093.4 342.419 1090.09 344.975 1084.48 C 348.556 1076.62 353.394 1069.09 357.361 1061.4 z"/>
<path transform="translate(0,0)" fill="rgb(0,0,0)" d="M 208.876 364.316 C 209.826 364.757 213.131 366.215 212.774 367.082 C 210.482 372.655 198.29 394.752 196.049 398.485 C 185.837 399.663 196.974 385.956 198.594 382.647 C 201.586 376.538 205.415 370.181 208.876 364.316 z"/>
<path transform="translate(0,0)" fill="rgb(0,0,0)" d="M 642.463 563.385 C 644.645 565.574 646.931 566.181 645.904 569.102 C 642.76 570.296 630.265 581.334 627.4 584.059 C 625.008 582.483 624.94 582.62 623.245 580.407 C 626.003 578.461 637.197 567.667 639.408 565.119 L 642.463 563.385 z"/>
</svg>